<?xml version="1.0" standalone="no"?>
<!DOCTYPE svg PUBLIC "-//W3C//DTD SVG 20010904//EN"
 "http://www.w3.org/TR/2001/REC-SVG-20010904/DTD/svg10.dtd">
<svg version="1.0" xmlns="http://www.w3.org/2000/svg"
 width="450.000000pt" height="450.000000pt" viewBox="0 0 450.000000 450.000000"
 preserveAspectRatio="xMidYMid meet">
<metadata>
Created by potrace 1.11, written by Peter Selinger 2001-2013
</metadata>
<g transform="translate(0.000000,450.000000) scale(0.100000,-0.100000)"
fill="#000000" stroke="none">
<path d="M2137 4454 c-1 -1 -40 -4 -87 -7 -47 -4 -94 -8 -105 -11 -11 -2 -42
-7 -70 -10 -27 -4 -68 -12 -90 -18 -22 -5 -51 -12 -65 -15 -14 -2 -47 -11 -75
-20 -332 -103 -568 -227 -815 -428 -51 -42 -240 -233 -292 -296 -76 -91 -196
-275 -254 -389 -26 -52 -48 -98 -48 -102 -1 -3 -4 -10 -8 -14 -5 -4 -8 -15 -8
-25 0 -9 -3 -19 -7 -21 -9 -3 -47 -105 -70 -183 -8 -27 -16 -56 -18 -63 -3 -7
-5 -16 -6 -20 -1 -4 -7 -27 -14 -52 -12 -40 -23 -93 -40 -185 -15 -81 -19
-166 -19 -340 0 -204 8 -309 30 -407 4 -18 8 -42 10 -53 1 -11 3 -21 4 -22 3
-3 3 -5 14 -53 11 -50 65 -220 81 -255 7 -16 21 -50 31 -75 58 -149 194 -375
321 -533 54 -67 233 -251 285 -292 149 -120 270 -201 408 -272 91 -47 194 -93
206 -93 3 0 20 -6 37 -14 35 -16 189 -65 226 -72 12 -3 51 -11 85 -19 34 -8
79 -17 100 -21 21 -3 48 -8 60 -10 109 -22 467 -21 606 1 82 14 175 32 175 35
0 1 9 3 20 4 34 5 89 18 100 24 6 4 15 7 20 9 57 12 162 50 271 96 78 33 123
56 134 67 3 3 25 15 50 27 49 24 102 55 110 64 3 3 21 15 41 27 36 22 60 40
188 140 69 54 248 239 316 327 38 50 72 92 75 95 3 3 10 14 17 25 7 11 31 51
54 89 40 66 126 235 168 327 46 104 111 333 126 446 2 12 6 34 9 50 28 141 29
537 1 673 -2 14 -7 39 -10 55 -19 114 -38 187 -82 315 -37 111 -118 294 -140
321 -7 8 -13 20 -13 25 0 13 -130 218 -141 222 -5 2 -9 10 -9 17 0 7 -4 15 -8
17 -4 2 -21 21 -37 43 -17 22 -43 56 -60 75 -45 54 -286 290 -296 290 -4 0
-20 11 -35 25 -112 104 -432 274 -654 348 -159 53 -398 105 -420 92 -6 -4 -10
-2 -10 2 0 5 -37 10 -82 12 -96 4 -288 7 -291 5z m35 -368 c21 0 38 -3 38 -6
0 -3 10 -6 23 -7 74 -6 94 -16 87 -48 -1 -5 -3 -28 -5 -50 -4 -37 -6 -57 -19
-145 -3 -19 -8 -55 -11 -80 -3 -25 -8 -56 -10 -70 -2 -14 -7 -51 -10 -82 -6
-63 -4 -65 72 -73 21 -2 38 -4 38 -5 0 -1 20 -4 45 -6 25 -2 53 -6 62 -8 18
-4 24 6 32 59 15 88 38 233 40 250 17 130 39 210 54 201 4 -2 38 -7 76 -10 38
-3 78 -8 90 -11 11 -3 32 -7 46 -9 31 -5 83 -18 91 -22 3 -2 1 -36 -6 -76 -7
-40 -16 -98 -19 -128 -4 -30 -15 -111 -25 -180 -10 -69 -16 -130 -14 -136 2
-7 52 -29 111 -49 202 -71 357 -153 447 -236 47 -43 108 -133 98 -143 -4 -3
-2 -6 4 -6 5 0 19 -30 29 -67 28 -102 26 -266 -5 -358 -43 -127 -115 -217
-237 -297 -35 -23 -64 -45 -64 -48 0 -3 39 -31 88 -63 128 -84 197 -158 237
-252 52 -125 52 -290 0 -470 -72 -250 -210 -399 -440 -475 -102 -33 -178 -41
-453 -44 -94 -1 -176 -6 -181 -12 -7 -8 -16 -51 -37 -179 -2 -11 -5 -38 -8
-60 -4 -39 -18 -128 -31 -210 -4 -22 -7 -46 -8 -52 -1 -19 -30 -25 -79 -18
-24 4 -54 8 -68 10 -14 1 -60 8 -103 15 l-78 13 5 61 c6 69 12 115 31 236 7
47 12 92 20 171 l7 67 -28 6 c-39 7 -109 16 -166 21 -51 3 -52 3 -62 -65 -3
-19 -8 -48 -11 -65 -8 -50 -14 -88 -19 -125 -9 -65 -16 -105 -21 -130 -3 -14
-8 -41 -11 -60 -11 -75 -8 -73 -88 -66 -39 4 -110 14 -158 22 -85 15 -88 17
-88 43 0 24 11 110 26 201 3 19 7 51 10 70 3 19 7 44 8 55 5 28 16 124 20 162
3 28 0 32 -28 37 -61 13 -192 34 -245 41 -30 4 -63 9 -75 11 -12 2 -66 11
-121 19 -184 28 -178 26 -168 63 12 49 74 236 88 269 8 17 15 36 15 41 0 15
33 24 67 17 15 -3 62 -8 103 -11 41 -4 82 -8 90 -9 23 -3 73 16 88 34 18 23
32 58 38 100 2 20 7 47 10 61 8 46 11 65 18 115 4 28 9 61 11 75 9 60 38 257
40 275 2 11 6 43 10 70 4 28 9 59 11 70 2 11 7 40 10 65 3 25 7 56 9 70 2 14
7 45 10 70 7 49 13 85 15 85 0 0 3 21 5 46 2 25 7 60 10 77 10 61 14 87 20
142 3 30 8 66 10 80 8 47 17 145 16 174 -2 45 -37 92 -84 114 -39 18 -153 48
-169 44 -14 -3 -113 20 -125 30 -6 5 -10 17 -9 26 2 9 7 44 11 77 4 32 8 66
10 75 1 8 6 35 11 60 4 25 9 48 10 53 1 4 2 15 3 26 1 13 8 18 24 16 12 -1 53
-6 90 -9 37 -4 76 -9 85 -10 30 -6 142 -22 212 -31 19 -2 51 -7 70 -10 19 -2
67 -7 106 -10 l70 -5 12 77 c7 43 14 89 16 103 3 14 7 43 10 65 3 22 7 51 10
65 2 14 7 43 10 65 23 161 13 147 93 139 38 -4 85 -7 105 -8z"/>
<path d="M2190 3062 c-6 -39 -13 -82 -15 -94 -8 -58 -15 -112 -19 -137 -9 -53
-16 -107 -20 -141 -9 -75 -17 -146 -20 -173 -4 -33 12 -43 75 -51 24 -3 62 -9
84 -13 55 -9 340 -9 394 1 57 10 128 43 164 75 35 32 79 104 84 139 5 37 5
122 -1 149 -15 72 -95 156 -196 205 -90 44 -95 45 -191 68 -108 25 -134 29
-240 36 l-87 6 -12 -70z"/>
<path d="M2056 2114 c-8 -42 -35 -203 -40 -244 -5 -35 -8 -55 -22 -140 -4 -25
-9 -61 -10 -80 -1 -19 -3 -35 -4 -35 -2 0 -4 -12 -19 -128 -9 -67 -6 -71 74
-81 28 -4 64 -9 80 -12 81 -14 122 -16 270 -16 195 -1 269 6 337 32 178 67
253 266 165 436 -26 51 -114 122 -203 164 -45 22 -93 42 -106 44 -13 3 -23 5
-23 6 0 1 -8 3 -18 5 -10 2 -26 7 -35 11 -21 8 -27 10 -167 34 -85 14 -120 19
-206 26 l-67 6 -6 -28z"/>
</g>
</svg>
